<?xml version="1.0" standalone="no"?><!DOCTYPE svg PUBLIC "-//W3C//DTD SVG 1.1//EN" "http://www.w3.org/Graphics/SVG/1.1/DTD/svg11.dtd"><svg t="1773796538995" class="icon" viewBox="0 0 1024 1024" version="1.1" xmlns="http://www.w3.org/2000/svg" p-id="1889" id="mx_n_1773796538997" width="256" height="256" xmlns:xlink="http://www.w3.org/1999/xlink"><path d="M823.902041 762.77551H199.053061c-33.959184 0-61.64898-27.689796-61.648979-61.648979 0-31.869388 14.106122-61.64898 38.138775-82.02449 7.836735-6.269388 19.330612-14.628571 33.959184-24.032653v-1.567347c-1.044898-89.338776-3.657143-254.955102 94.563265-354.742857C305.110204 237.714286 381.387755 161.959184 512.522449 161.959184c104.489796 0 181.812245 50.155102 207.934694 76.8 43.885714 44.408163 73.142857 107.62449 87.248979 188.081632 10.971429 64.261224 10.44898 126.432653 9.926531 168.228572 15.15102 9.404082 26.122449 17.763265 33.436735 24.555102 22.465306 20.37551 35.526531 49.632653 35.52653 79.934694 0 35.004082-28.212245 63.216327-62.693877 63.216326zM512.522449 203.755102c-112.326531 0-177.632653 63.216327-178.155102 63.738776C248.163265 355.265306 250.253061 509.910204 251.297959 592.979592v4.702041c0 12.538776-6.269388 25.077551-17.240816 31.869387-17.763265 10.971429-27.167347 18.285714-31.869388 21.942858-14.628571 12.538776-23.510204 30.82449-23.510204 50.155102 0 10.971429 8.881633 19.853061 19.853061 19.853061h624.84898c11.493878 0 20.897959-9.404082 20.897959-20.897959 0-18.808163-7.836735-36.571429-21.942857-49.110204-4.179592-3.657143-13.061224-10.971429-30.302041-21.942858-10.971429-6.791837-17.240816-18.285714-16.718367-31.346938v-2.089796c0.522449-40.228571 1.044898-100.310204-9.404082-161.436735-12.538776-72.097959-37.616327-128-75.755102-166.138775-17.240816-18.285714-83.591837-64.783673-177.632653-64.783674z" fill="#1E40AF" p-id="1890"></path><path d="M422.138776 217.338776l-1.567347-24.555103c0-2.612245-0.522449-4.702041-0.522449-6.791836C420.04898 135.314286 461.322449 94.040816 512 94.040816s91.95102 41.273469 91.95102 91.951021c0 2.089796 0 4.179592-0.522449 6.269387l-1.567347 24.555103-24.032653-5.22449c-43.363265-10.44898-89.338776-10.44898-132.179591 0l-23.510204 5.746939zM512 135.836735c-20.37551 0-38.138776 12.016327-45.97551 29.779592 30.302041-4.179592 61.126531-4.179592 91.95102 0A50.102857 50.102857 0 0 0 512 135.836735z" fill="#1E40AF" p-id="1891"></path><path d="M512 929.959184c-83.591837 0-151.510204-67.918367-151.510204-151.510204 0-14.628571 2.089796-28.734694 6.269388-42.318368l4.179592-15.15102h282.122448l4.179592 15.15102c4.179592 13.583673 6.269388 28.212245 6.269388 42.318368 0 83.591837-67.918367 151.510204-151.510204 151.510204z m-108.669388-167.183674c-0.522449 5.22449-1.044898 10.44898-1.044898 15.67347 0 60.604082 49.110204 109.714286 109.714286 109.714285s109.714286-49.110204 109.714286-109.714285c0-5.22449-0.522449-10.44898-1.044898-15.67347H403.330612z" fill="#1E40AF" p-id="1892"></path></svg>